<svg width="230" height="220" viewBox="0 0 230 220" fill="none" xmlns="http://www.w3.org/2000/svg">
  <mask id="mask0_1005_5557" style="mask-type:alpha" maskUnits="userSpaceOnUse" x="0" y="0" width="230" height="220">
    <path d="M230 12C230 5.37258 224.627 0 218 0H12C5.37257 0 -1.52588e-05 5.37258 -1.52588e-05 12V208C-1.52588e-05 214.627 5.37257 220 12 220H218C224.627 220 230 214.627 230 208V12Z" fill="#FF7F4D" />
  </mask>
  <g mask="url(#mask0_1005_5557)">
    <path d="M129.262 237.652C125.989 233.524 124.183 230.089 123.219 227.361L122.565 227.767C119.111 212.311 125.752 197.276 125.752 197.276L147.729 191.12C147.729 191.12 151.115 201.719 153.884 208.247C158.192 214.053 165.168 215.9 165.168 215.9L169.427 244.01C169.431 244.014 138.699 249.553 129.262 237.652Z" fill="#E54728" />
    <path d="M97.5663 167.995C83.4266 176.216 69.3057 180.359 52.98 179.336L7.43419 156.557C1.63608 140.209 -2.85263 123.059 -2.03992 105.732C-1.2272 88.4058 5.48142 70.7594 18.8686 59.7313C25.186 54.5277 32.7224 50.9608 38.9945 45.7008C47.8667 38.2584 54.0636 27.5539 64.2564 22.0531C80.4241 13.3277 103.063 17.0338 110.811 34.1158C122.569 32.8855 136.964 44.5043 127.208 76.4258C124.536 85.17 120.123 96.8001 121.571 105.826C125.752 131.909 116.624 156.918 97.5663 167.995Z" fill="#2E0031" />
    <path d="M-5.70842 162.969C-0.361816 124.511 31.3942 117.829 31.3942 117.829L96.6408 120.136C96.6408 120.136 112.951 120.839 124.954 135.72C136.957 150.601 142.958 156.602 143.421 170.452C143.883 184.302 135.572 204.154 131.881 211.077C128.186 218 130.959 236.466 130.959 236.466C130.959 236.466 81.297 284.018 6.81711 273.55C8.97305 267.18 11.2457 260.426 11.8778 254.948C-4.30499 230.473 -10.1595 195.014 -5.70842 162.969Z" fill="#FF572F" />
    <path d="M132.648 234.445C132.776 235.039 132.472 235.664 131.858 235.833C131.294 235.987 130.598 235.645 130.47 235.043C129.33 229.775 129.051 224.335 129.661 218.981C130.278 213.54 131.738 208.246 134.018 203.268C135.275 200.525 136.791 197.907 138.541 195.446C138.894 194.949 139.526 194.712 140.083 195.04C140.572 195.325 140.843 196.086 140.49 196.582C137.476 200.815 135.177 205.522 133.683 210.496C132.193 215.444 131.49 220.602 131.618 225.768C131.689 228.692 132.031 231.589 132.648 234.445Z" fill="#180205" />
    <path d="M50.6321 70.7406C50.015 58.5838 60.6329 60.2769 63.4059 65.9697C63.4059 65.9697 75.717 66.4325 83.2572 55.0432C90.7974 43.6577 102.853 42.8864 107.928 49.5047C107.928 49.5047 115.57 48.1201 116.65 59.6599C117.726 71.1996 113.087 107.516 89.7063 107.057C89.7063 107.057 89.8718 115.982 90.4888 119.059L96.6444 120.136C96.6444 120.136 91.8585 134.813 68.7902 135.679C40.0141 136.755 31.3979 117.829 31.3979 117.829L48.3256 113.829C48.3256 113.829 59.7111 98.7491 61.8671 81.2081C61.8671 81.2043 51.2491 82.8974 50.6321 70.7406Z" fill="#FFBEAE" />
    <path d="M46.2713 132.697C41.9368 130.766 37.9184 128.163 34.3666 125.013C33.9113 124.607 33.9527 123.828 34.3666 123.418C34.8181 122.967 35.5066 123.012 35.9619 123.418C41.982 128.753 49.4619 132.339 57.3596 133.822C65.3023 135.312 73.5649 134.465 81.1051 131.602C85.3229 129.999 89.33 127.73 92.8555 124.916C93.3296 124.536 93.9881 124.449 94.4509 124.916C94.8459 125.311 94.9287 126.131 94.4509 126.511C87.7196 131.888 79.6151 135.308 71.0741 136.425C62.6422 137.528 54.0259 136.151 46.2713 132.697Z" fill="#180205" />
    <path d="M49.0819 213.691C48.288 210.718 47.4904 207.746 46.6965 204.773C45.4322 200.055 44.1718 195.341 42.9075 190.622C42.6178 189.539 42.3281 188.459 42.0384 187.375C41.6622 185.972 43.8406 185.37 44.2169 186.773C45.0108 189.746 45.8085 192.718 46.6024 195.69C47.8666 200.409 49.1271 205.123 50.3913 209.841C50.681 210.925 50.9707 212.005 51.2604 213.089C51.6367 214.496 49.4582 215.094 49.0819 213.691Z" fill="#180205" />
    <path d="M33.091 175.999L80.6385 123.372C80.6385 123.372 102.491 125.833 119.607 130.179C136.723 134.524 152.334 142.764 152.334 142.764C152.334 142.764 160.965 134.453 176.046 132.462C191.126 130.472 212.053 128.606 212.053 128.606L218.416 136.319L162.196 164.23L35.627 188.088L33.091 175.999Z" fill="#FCF4E6" />
    <path d="M104.644 205.543L33.0911 191.125L81.2406 133.501L143.443 146.915H155.89L221.904 135.725L176.2 191.125L123.573 203.237L104.644 205.543Z" fill="#0E6AC3" />
    <path d="M143.443 146.915H155.89L123.573 203.236L104.644 205.543L143.443 146.915Z" fill="#1058C1" />
    <path d="M118.035 197.279L108.188 205.542C108.188 205.542 97.4158 200.398 92.7991 195.277C92.7991 195.277 100.802 189.694 102.032 176.152C103.263 162.611 109.881 163.533 112.959 165.072C116.037 166.61 115.265 171.227 119.577 172.149C123.885 173.071 140.196 161.994 147.432 164.917C154.663 167.841 152.97 176.303 148.353 181.691C143.733 187.075 132.961 195.172 118.035 197.279Z" fill="#FFBEAE" />
    <path d="M26.1642 264.169C7.67496 261.528 -2.98061 229.403 -5.67836 198.644C-7.22477 181.021 50.1693 213.39 50.1693 213.39C58.018 211.083 95.4104 191.123 95.4104 191.123C103.722 199.325 111.567 204.619 111.567 204.619C102.337 218.469 55.2488 268.327 26.1642 264.169Z" fill="#FF572F" />
    <path d="M46.1279 214.291C46.2456 214.242 45.9192 214.379 46.1279 214.291V214.291Z" fill="#180205" />
    <path d="M95.9822 192.098C95.7264 192.229 95.4705 192.361 95.2147 192.497C95.0152 192.305 94.8121 192.117 94.6127 191.921C95.0717 191.981 95.527 192.038 95.9822 192.098Z" fill="#180205" />
    <path d="M95.2146 192.497C95.4704 192.365 95.7263 192.234 95.9822 192.098C95.5269 192.038 95.0716 191.982 94.6126 191.921C94.812 192.117 95.0152 192.301 95.2146 192.497C93.9692 193.144 92.72 193.795 91.4709 194.439C87.7986 196.339 84.1188 198.227 80.4352 200.105C75.796 202.468 71.1493 204.816 66.4837 207.133C62.074 209.323 57.6492 211.494 53.1868 213.575C50.1956 214.971 47.1818 216.434 44.0551 217.507C43.8481 217.578 43.6374 217.646 43.4229 217.71C42.027 218.124 41.4326 215.945 42.8209 215.531C43.9422 215.2 45.0258 214.741 46.1057 214.294C46.1132 214.29 46.117 214.29 46.1245 214.286C46.2411 214.237 45.9175 214.373 46.1245 214.286C46.132 214.282 46.132 214.282 46.1395 214.279C46.2185 214.245 46.3013 214.211 46.3803 214.177C46.5835 214.09 46.7867 214.004 46.9861 213.917C47.3811 213.748 47.7725 213.575 48.1638 213.398C49.0517 213.003 49.9322 212.6 50.8126 212.194C55.1433 210.196 59.4289 208.104 63.7032 205.99C68.4026 203.668 73.0832 201.309 77.7563 198.931C81.6016 196.975 85.4432 195.007 89.2773 193.024C91.1021 192.079 92.9119 191.09 94.7556 190.183C94.7819 190.172 94.8082 190.157 94.8308 190.142C95.2823 189.908 95.8279 189.954 96.2004 190.319C100.825 194.875 105.791 199.123 111.07 202.893C111.42 203.145 111.774 203.393 112.131 203.638C112.613 203.965 112.891 204.646 112.537 205.181C110.54 208.172 108.229 210.967 105.897 213.703C102.544 217.631 99.0261 221.42 95.4027 225.1C91.1059 229.468 86.6548 233.686 82.0494 237.723C77.1957 241.979 72.1652 246.038 66.9202 249.797C61.9348 253.368 56.7387 256.679 51.2529 259.429C46.4142 261.856 41.2933 263.918 35.9543 264.915C31.0705 265.826 25.9007 265.905 21.2577 263.933C15.7493 261.596 11.5654 256.923 8.36344 252.006C4.29235 245.752 1.50052 238.671 -0.67424 231.564C-3.17634 223.388 -4.83564 214.967 -5.94936 206.494C-6.22402 204.402 -6.46107 202.302 -6.66425 200.199C-6.72445 199.593 -6.10363 199.07 -5.53548 199.07C-4.87704 199.07 -4.46692 199.59 -4.40672 200.199C-3.59024 208.616 -2.21313 216.988 -0.113625 225.182C1.77142 232.546 4.21333 239.853 7.79906 246.58C10.5871 251.814 14.2405 257.066 19.1996 260.283C21.4007 261.713 23.6056 262.627 26.2281 263.038C26.2845 263.045 26.5178 263.079 26.5366 263.083C26.5102 263.079 26.4877 263.075 26.4613 263.075C26.5253 263.083 26.5403 263.086 26.5366 263.083C26.6269 263.094 26.7209 263.105 26.8112 263.117C27.0972 263.15 27.3832 263.177 27.6691 263.199C28.2297 263.244 28.7941 263.267 29.3585 263.275C30.5023 263.29 31.6461 263.233 32.7824 263.117C33.0533 263.09 33.3205 263.056 33.5876 263.023C33.6817 263.011 33.7043 263.007 33.708 263.007C33.7118 263.007 33.7043 263.007 33.708 263.007C33.7118 263.007 33.7344 263.004 33.8284 262.989C33.9902 262.966 34.1558 262.94 34.3176 262.913C34.9045 262.819 35.4915 262.714 36.0747 262.594C37.3201 262.338 38.5504 262.022 39.7695 261.66C42.3092 260.908 44.8001 259.948 47.1178 258.906C52.4983 256.483 57.5928 253.454 62.4766 250.151C67.6726 246.637 72.6355 242.787 77.4252 238.739C82.1246 234.766 86.6585 230.597 91.0382 226.277C94.8572 222.511 98.567 218.628 102.123 214.61C103.571 212.973 104.993 211.314 106.378 209.62C106.969 208.898 107.552 208.168 108.124 207.431C108.154 207.393 108.244 207.273 108.263 207.25C108.241 207.28 108.218 207.31 108.192 207.34C108.256 207.254 108.271 207.235 108.263 207.25C108.297 207.209 108.327 207.167 108.361 207.122C108.493 206.949 108.624 206.78 108.752 206.607C108.982 206.302 109.211 205.993 109.437 205.681C109.629 205.418 109.81 205.147 109.998 204.88C110.329 205.113 110.664 205.346 110.999 205.572C110.863 205.056 110.728 204.541 110.592 204.029C110.4 204.319 110.193 204.597 109.998 204.88C106.517 202.449 103.214 199.725 100.027 196.933C98.3864 195.511 96.7836 194.021 95.2146 192.497Z" fill="#180205" />
    <path d="M108.191 207.359C108.214 207.328 108.237 207.298 108.263 207.268C108.274 207.256 108.259 207.275 108.191 207.359Z" fill="#180205" />
    <path d="M110.999 205.594C110.664 205.368 110.329 205.135 109.998 204.902C110.197 204.619 110.4 204.337 110.592 204.051C110.731 204.563 110.867 205.078 110.999 205.594Z" fill="#180205" />
    <path d="M165.273 169.519C167.734 163.657 187.07 151.876 197.895 164.819C208.724 177.762 193.278 195.273 193.278 195.273L188.97 207.385C179.737 210.771 166.195 203.077 166.195 203.077L169.273 198.769C166.195 188.922 170.195 184.881 170.195 184.881C164.969 181.77 162.813 175.381 165.273 169.519Z" fill="#FFBEAE" />
    <path d="M153.888 208.251C153.888 208.251 163.136 204.059 165.891 200.233C165.891 200.233 174.202 204.925 191.126 205.542C191.126 205.542 185.279 236.011 169.427 244.014L153.888 208.251Z" fill="#E54728" />
    <path d="M60.9755 71.3575C60.8777 68.7388 58.2702 66.6468 55.7079 66.9704C55.4032 67.008 55.1435 66.6844 55.1435 66.406C55.1435 66.0711 55.4032 65.8792 55.7079 65.8416C58.8986 65.439 61.9839 68.1857 62.1043 71.3575C62.1306 72.0837 61.0019 72.0837 60.9755 71.3575Z" fill="#180205" />
    <path d="M87.0912 74.6758C86.0038 74.4764 85.3604 73.0127 85.6539 71.4136C85.9511 69.8146 87.0724 68.6783 88.1598 68.8777C89.2472 69.0771 89.8905 70.5408 89.5971 72.1398C89.3036 73.7427 88.1786 74.8752 87.0912 74.6758Z" fill="#180205" />
    <path d="M87.9756 74.1279C87.5517 74.1279 87.2081 73.7843 87.2081 73.3604C87.2081 72.9364 87.5517 72.5928 87.9756 72.5928C88.3996 72.5928 88.7432 72.9364 88.7432 73.3604C88.7432 73.7843 88.3996 74.1279 87.9756 74.1279Z" fill="white" />
    <path d="M103.999 79.0533C102.964 78.6578 102.597 77.1051 103.178 75.5853C103.759 74.0654 105.068 73.154 106.103 73.5495C107.138 73.945 107.505 75.4977 106.924 77.0176C106.343 78.5374 105.033 79.4489 103.999 79.0533Z" fill="#180205" />
    <path d="M104.982 78.6539C104.565 78.5749 104.29 78.176 104.365 77.7584C104.444 77.3407 104.843 77.0661 105.261 77.1413C105.678 77.2166 105.953 77.6192 105.878 78.0368C105.802 78.4544 105.4 78.7329 104.982 78.6539Z" fill="white" />
    <path d="M91.5048 64.2669C91.0571 63.4654 90.3234 62.8521 89.4354 62.6001C88.4647 62.3216 87.4337 62.5135 86.5909 63.0591C85.9814 63.4542 85.4132 62.4797 86.0228 62.0846C87.1064 61.381 88.491 61.1552 89.7364 61.5127C90.8953 61.8438 91.8961 62.6452 92.4793 63.6987C92.833 64.3346 91.8585 64.9027 91.5048 64.2669Z" fill="#180205" />
    <path d="M110.321 70.1834C109.874 69.382 109.14 68.7687 108.252 68.5166C107.281 68.2381 106.25 68.43 105.407 68.9756C104.798 69.3707 104.23 68.3962 104.839 68.0011C105.923 67.2975 107.308 67.0717 108.553 67.4292C109.712 67.7603 110.713 68.5617 111.296 69.6152C111.65 70.2473 110.675 70.8193 110.321 70.1834Z" fill="#180205" />
    <path d="M98.8869 83.775C98.7816 83.5606 98.6875 83.3423 98.5935 83.1279C98.8042 83.0789 99.0149 83.0188 99.2256 82.9473C99.1127 83.2257 98.9998 83.5004 98.8869 83.775Z" fill="#180205" />
    <path d="M99.5267 84.0342C98.3453 84.4368 97.1074 84.5159 95.8808 84.3164C95.1659 84.1998 95.4707 83.1124 96.1818 83.2291C96.9945 83.3607 97.8072 83.3156 98.5974 83.1275C98.6914 83.3457 98.7855 83.5639 98.8909 83.7746C99.0037 83.5 99.1166 83.2215 99.2295 82.9469C99.0226 83.0184 98.8118 83.0785 98.5974 83.1275C97.6304 80.9113 97.1713 78.4995 97.3106 76.0764C97.3519 75.354 98.4807 75.3502 98.4393 76.0764C98.3001 78.5371 98.778 80.9941 99.8691 83.2065C100.031 83.5451 99.8879 83.9138 99.5267 84.0342Z" fill="#180205" />
    <path d="M87.1401 88.0423C86.6774 87.4892 87.4713 86.6877 87.9378 87.2446C89.7288 89.3742 92.6786 90.3525 95.3801 89.6489C96.0837 89.4645 96.3847 90.5557 95.6811 90.7363C92.6184 91.5339 89.187 90.4729 87.1401 88.0423Z" fill="#180205" />
    <path d="M72.4324 99.981C78.9454 106.754 89.7063 107.058 89.7063 107.058L90.0111 114.538C74.483 112.138 72.4324 99.981 72.4324 99.981Z" fill="#180205" />
    <path d="M175.816 185.096C178.54 185.777 181.411 185.721 184.12 184.995C185.524 184.618 186.126 186.797 184.719 187.173C179.628 188.539 173.935 187.771 169.578 184.724C165.654 181.981 163.058 177.616 163.204 172.744C163.287 170.012 164.205 167.412 165.928 165.286C166.312 164.812 167.125 164.888 167.524 165.286C167.99 165.753 167.907 166.408 167.524 166.882C165.022 169.967 164.845 174.621 166.617 178.09C168.446 181.672 171.964 184.129 175.816 185.096Z" fill="#180205" />
  </g>
</svg>